<svg xmlns="http://www.w3.org/2000/svg" viewBox="0 0 512 512" role="img" aria-labelledby="title desc">
  <title id="title">JPA pixel book nook icon</title>
  <desc id="desc">A pixel-art book nook icon in purple, pink, mint, and gold with the initials JPA.</desc>
  <defs>
    <pattern id="grid" width="32" height="32" patternUnits="userSpaceOnUse">
      <path d="M32 0H0V32" fill="none" stroke="#fffaf0" stroke-width="4" opacity="0.18" />
    </pattern>
  </defs>
  <rect width="512" height="512" fill="#9b5de5" />
  <rect width="512" height="512" fill="url(#grid)" />
  <rect x="40" y="40" width="432" height="432" fill="#fffaf0" stroke="#35104f" stroke-width="24" />
  <rect x="76" y="92" width="360" height="292" fill="#2f1553" stroke="#35104f" stroke-width="16" />
  <rect x="104" y="116" width="42" height="180" fill="#ff73c8" stroke="#35104f" stroke-width="12" />
  <rect x="158" y="142" width="46" height="154" fill="#ffd76a" stroke="#35104f" stroke-width="12" />
  <rect x="216" y="106" width="52" height="190" fill="#70e2c2" stroke="#35104f" stroke-width="12" />
  <rect x="280" y="136" width="48" height="160" fill="#78b7ff" stroke="#35104f" stroke-width="12" />
  <rect x="340" y="112" width="48" height="184" fill="#ff9fda" stroke="#35104f" stroke-width="12" />
  <rect x="92" y="288" width="328" height="34" fill="#8a4a83" stroke="#35104f" stroke-width="12" />
  <rect x="116" y="350" width="280" height="74" fill="#fffaf0" stroke="#35104f" stroke-width="14" />
  <text x="256" y="407" text-anchor="middle" font-family="Arial Black, Arial, sans-serif" font-size="70" font-weight="900" fill="#35104f">JPA</text>
  <g fill="#ffd76a">
    <rect x="398" y="78" width="18" height="18" />
    <rect x="404" y="60" width="6" height="54" />
    <rect x="380" y="84" width="54" height="6" />
  </g>
  <g fill="#ff73c8" stroke="#35104f" stroke-width="10">
    <rect x="188" y="42" width="46" height="36" />
    <rect x="278" y="42" width="46" height="36" />
    <rect x="236" y="52" width="40" height="40" fill="#ffd76a" />
  </g>
  <rect x="242" y="82" width="28" height="32" fill="#ff73c8" stroke="#35104f" stroke-width="10" />
</svg>
