<svg xmlns="http://www.w3.org/2000/svg" viewBox="0 0 1200 630" role="img" aria-labelledby="title desc">
  <title id="title">Jasmine Amohia social preview</title>
  <desc id="desc">A cute pixel book nook social preview with the initials JPA.</desc>
  <defs>
    <pattern id="grid" width="34" height="34" patternUnits="userSpaceOnUse">
      <path d="M34 0H0V34" fill="none" stroke="#fffaf0" stroke-width="3" opacity="0.2" />
    </pattern>
  </defs>
  <rect width="1200" height="630" fill="#9b5de5" />
  <rect width="1200" height="630" fill="url(#grid)" />
  <path d="M0 396h1200v234H0z" fill="#ff85cd" opacity="0.6" />
  <rect x="58" y="54" width="1084" height="522" fill="#fffaf0" stroke="#35104f" stroke-width="18" />
  <rect x="90" y="86" width="1020" height="458" fill="#fff7d6" stroke="#35104f" stroke-width="8" />
  <g transform="translate(126 128)">
    <text x="0" y="48" font-family="Arial Black, Arial, sans-serif" font-size="48" font-weight="900" fill="#35104f">Jasmine Amohia</text>
    <text x="0" y="104" font-family="Arial Black, Arial, sans-serif" font-size="34" font-weight="900" fill="#6f32c9">Pixel book nook portfolio</text>
    <text x="0" y="166" font-family="Arial, sans-serif" font-size="27" font-weight="700" fill="#6e5874">Where I have been, what I am thinking,</text>
    <text x="0" y="204" font-family="Arial, sans-serif" font-size="27" font-weight="700" fill="#6e5874">and the minds I am enjoying.</text>
    <rect x="0" y="254" width="278" height="92" fill="#70e2c2" stroke="#35104f" stroke-width="8" />
    <text x="139" y="318" text-anchor="middle" font-family="Arial Black, Arial, sans-serif" font-size="58" font-weight="900" fill="#35104f">JPA</text>
  </g>
  <g transform="translate(684 84)">
    <rect x="0" y="0" width="356" height="388" fill="#2f1553" stroke="#35104f" stroke-width="14" />
    <rect x="38" y="62" width="54" height="202" fill="#ff73c8" stroke="#35104f" stroke-width="10" />
    <rect x="106" y="96" width="58" height="168" fill="#ffd76a" stroke="#35104f" stroke-width="10" />
    <rect x="178" y="50" width="64" height="214" fill="#70e2c2" stroke="#35104f" stroke-width="10" />
    <rect x="256" y="86" width="54" height="178" fill="#78b7ff" stroke="#35104f" stroke-width="10" />
    <rect x="26" y="252" width="304" height="34" fill="#8a4a83" stroke="#35104f" stroke-width="10" />
    <rect x="62" y="318" width="232" height="52" fill="#fffaf0" stroke="#35104f" stroke-width="9" />
    <text x="178" y="358" text-anchor="middle" font-family="Arial Black, Arial, sans-serif" font-size="42" font-weight="900" fill="#35104f">JPA</text>
    <g fill="#ffd76a">
      <rect x="286" y="28" width="16" height="16" />
      <rect x="291" y="12" width="6" height="48" />
      <rect x="270" y="33" width="48" height="6" />
    </g>
  </g>
  <g fill="#ff73c8" stroke="#35104f" stroke-width="8">
    <rect x="816" y="42" width="54" height="38" />
    <rect x="932" y="42" width="54" height="38" />
    <rect x="874" y="52" width="54" height="54" fill="#ffd76a" />
  </g>
  <rect x="890" y="96" width="32" height="38" fill="#ff73c8" stroke="#35104f" stroke-width="8" />
  <g fill="#ffd76a">
    <rect x="104" y="480" width="18" height="18" />
    <rect x="110" y="462" width="6" height="54" />
    <rect x="86" y="486" width="54" height="6" />
    <rect x="1050" y="480" width="18" height="18" />
    <rect x="1056" y="462" width="6" height="54" />
    <rect x="1032" y="486" width="54" height="6" />
  </g>
</svg>
